<?xml version="1.0" encoding="UTF-8"?>
<svg xmlns="http://www.w3.org/2000/svg" viewBox="466.8 162.5 154.2 108.9">
  <g>
    <path d="m577.8,238.9c.11.31.19.61.24.91,0,0-.05-.32-.24-.91Z"/>
    <path d="m577.8,238.88c-.87-2.68-4.54-10.83-18.74-20.02,0,0-17.88-10.47-40.61,1.53,0,0,21.71-20.44,56.71-13.03,0,0,14.56,16.09,40.1,17.37,0,0-19.92-27.33-39.85-18.9,0,0-13.03-2.55-16.35-1.79,0,0,8.68-3.58,10.73-9.71,0,0-.51-.51-3.83,1.02v-.64s5.11-1.66,4.98-4.47c0,0,.13-5.49-.64-6.13,0,0-.51-.89-1.92.64l-.38-.51s2.3-1.66.26-4.09c0,0-3.45-8.56-13.54-10.47,0,0,17.11,11.37.77,32.19,0,0-1.92,1.79-1.79,2.68h-3.7s-14.69,1.4-28.61,10.47c0,0,13.79-18.9,1.66-29.5,0,0-3.96-13.79-26.31-19.03,0,0,5.49,15.07,25.16,19.8,0,0,12.13,11.75-2.94,28.23.06-4.08-1.05-8.45-2.94-12.05-5.73-10.91-22.14-13.26-30.63-4.06-4.32,4.68-4.2,12.05-1.43,16.62.79,1.3,2.19,2.43,3.4,3.3,1.28.92,2.7,1.67,4.22,2.13,4.59,1.4,10.61-.11,12.98-4.6,3.08-5.83-1.8-12.29-7.68-13.23,5.11.89,9.04,6.47,7.47,11.5-1.76,5.63-9.56,7.55-14.43,4.98-4.73-2.5-7.41-7.16-7.03-12.54.09-1.29.34-2.56.68-3.8,1.63-5.94,9.34-9.21,14.96-9.34,3.16-.07,6.59.87,9.4,2.28,2.87,1.45,5.3,3.64,6.97,6.4,1.05,1.74,1.79,3.66,2.27,5.64.51,2.09,1.28,5.28.77,7.41,0,0-1.15,4.73-4.47,6.51,0,0-19.54,15.07-25.8,22.35,0,0-15.2,16.99-13.54,22.22,0,0,4.9-.13,6.85,1.15,0,0,6.81-15.33,11.24-20.78,0,0,9.54-14.3,20.77-18.39,0,0,3.75,1.87,5.28,1.53,0,0,.68-.51.17-1.36l1.7,1.53s6.81,1.87,7.32,1.7c0,0,.51-1.36.34-2.73l1.53,2.38s5.62,1.36,6.64.85l1.36-2.21.17,2.55s8,1.02,11.92,0c0,0-6.47-9.2-25.72-9.2,0,0,13.62-10.56,34.57,0,0,0,22.82,12.26,18.22,37.8,0,0,9.71-11.58-8-33.21,0,0,7.63,6.28,9.29,10.99Zm25.28-21.21c-4.94-1.02-24.01-10.39-24.01-10.39,14.99.17,24.01,10.39,24.01,10.39Zm-39.51-37.63s4.6,12.6-4.26,18.05c0,0,5.96-8.68,4.26-18.05Zm-58.92-8.17s9.37,3.58,14.82,12.26c0,0-8.52-5.28-14.82-12.26Z"/>
    <path d="m496.88,202.62c-.34-.06-.69-.1-1.04-.11.35.02.7.06,1.04.11Z"/>
    <path d="m577.8,238.88s0,.01,0,.02c0,0,0-.01,0-.02Z"/>
  </g>
</svg>
